<svg width="512" height="512" viewBox="0 0 512 512" fill="none" xmlns="http://www.w3.org/2000/svg">
<g clip-path="url(#clip0)">
<path d="M257.262 43.374L448.625 43.374C460.362 43.374 469.887 52.9 469.887 64.636L469.887 447.361C469.887 459.098 460.361 468.623 448.625 468.623L257.262 468.623C245.504 468.623 236 478.127 236 489.885C236 501.643 245.504 511.149 257.262 511.149L448.625 511.149C483.793 511.149 512.412 482.529 512.412 447.361L512.412 64.637C512.412 29.469 483.793 0.850004 448.625 0.850001L257.262 0.849984C245.504 0.849983 236 10.354 236 22.112C236 33.87 245.504 43.374 257.262 43.374Z" fill="#27B8A3"/>
<path d="M16.336 271.14L145.612 398.715C153.947 406.965 167.427 406.858 175.677 398.502C183.927 390.146 183.842 376.687 175.464 368.437L83.079 277.264L330.638 277.264C342.396 277.264 351.9 267.76 351.9 256.002C351.9 244.244 342.396 234.739 330.638 234.739L83.079 234.739L175.464 143.566C183.841 135.316 183.905 121.857 175.677 113.501C171.51 109.291 166.024 107.165 160.538 107.165C155.137 107.165 149.737 109.206 145.612 113.289L16.336 240.864C12.296 244.861 10 250.305 10 256.003C10 261.699 12.275 267.121 16.336 271.14Z" fill="#27B8A3"/>
</g>
<defs>
<clipPath id="clip0">
<rect width="512" height="512" fill="white"/>
</clipPath>
</defs>
</svg>
