<svg width="915" height="415" viewBox="0 0 915 415" fill="none" xmlns="http://www.w3.org/2000/svg">
<line x1="603.255" y1="253.698" x2="720.255" y2="186.698" stroke="#E9F2F2" stroke-width="3"/>
<line y1="-1.5" x2="134.071" y2="-1.5" transform="matrix(0.863195 0.504871 -0.495145 0.86881 208.789 186.293)" stroke="#E9F2F2" stroke-width="3"/>
<path d="M604.121 272.149C604.121 350.234 541.642 413.5 464.61 413.5C387.579 413.5 325.1 350.234 325.1 272.149C325.1 194.065 387.579 130.798 464.61 130.798C541.642 130.798 604.121 194.065 604.121 272.149Z" stroke="#E9F2F2" stroke-width="3"/>
<path d="M523.669 294.001C514.572 284.785 503.745 277.963 491.931 273.834C504.584 265.005 512.896 250.23 512.896 233.523C512.896 206.551 491.235 184.607 464.611 184.607C437.986 184.607 416.325 206.551 416.325 233.523C416.325 250.23 424.637 265.005 437.291 273.834C425.477 277.963 414.649 284.785 405.552 294.001C389.777 309.982 381.089 331.23 381.089 353.831H394.139C394.139 314.465 425.753 282.439 464.611 282.439C503.469 282.439 535.082 314.465 535.082 353.831H548.132C548.132 331.23 539.444 309.982 523.669 294.001ZM464.611 269.219C445.182 269.219 429.375 253.206 429.375 233.523C429.375 213.841 445.182 197.828 464.611 197.828C484.039 197.828 499.846 213.841 499.846 233.523C499.846 253.206 484.039 269.219 464.611 269.219Z" fill="#27B8A3"/>
<path d="M913.5 123.644C913.5 183.522 865.59 232.029 806.531 232.029C747.471 232.029 699.561 183.522 699.561 123.644C699.561 63.7663 747.471 15.259 806.531 15.259C865.59 15.259 913.5 63.7663 913.5 123.644Z" stroke="#E9F2F2" stroke-width="3"/>
<path d="M796.791 60H776V188.248H796.791V60Z" fill="#27B8A3"/>
<path d="M837.519 60H816.728V188.248H837.519V60Z" fill="#27B8A3"/>
<path d="M229.901 117.211C229.901 181.135 178.754 232.922 115.701 232.922C52.6477 232.922 1.5 181.135 1.5 117.211C1.5 53.2872 52.6477 1.5 115.701 1.5C178.754 1.5 229.901 53.2872 229.901 117.211Z" stroke="#E9F2F2" stroke-width="3"/>
<path d="M74 46V187L173 116.5L74 46Z" fill="#27B8A3"/>
</svg>
